<svg width="22" height="20" viewBox="0 0 22 20" fill="none" xmlns="http://www.w3.org/2000/svg">
<path fill-rule="evenodd" clip-rule="evenodd" d="M20.8662 4.35146H16.0963V0.627615C16.0963 0.281004 15.8153 0 15.4687 0H0.698782C0.352171 0 0.071167 0.281004 0.071167 0.627615V16.8619C0.071167 18.5923 1.47891 20 3.20924 20H18.3557C20.086 20 21.4938 18.5923 21.4938 16.8619V4.97908C21.4938 4.63247 21.2128 4.35146 20.8662 4.35146ZM3.20924 18.7448C2.17104 18.7448 1.3264 17.9001 1.3264 16.8619V1.25523H14.8411C14.8411 5.65531 14.8405 8.82339 14.8401 11.1079V11.109V11.1099V11.1105V11.1111V11.1115V11.1119V11.1124V11.1128C14.8391 16.9001 14.8391 17.0122 14.8516 17.1228L14.8524 17.1294L14.8524 17.1295C14.8533 17.1377 14.8544 17.1465 14.8554 17.158C14.91 17.7399 15.127 18.2885 15.4701 18.7448H3.20924ZM20.2385 16.8619C20.2385 17.9001 19.3939 18.7448 18.3557 18.7448H17.9791C16.9409 18.7448 16.0963 17.9001 16.0963 16.8619V5.60669H20.2385V16.8619ZM12.7908 3.01245H3.41839C3.07178 3.01245 2.79077 3.29345 2.79077 3.64006C2.79077 3.98667 3.07178 4.26767 3.41839 4.26767H12.7908C13.1374 4.26767 13.4184 3.98667 13.4184 3.64006C13.4184 3.29345 13.1374 3.01245 12.7908 3.01245ZM3.41839 5.69043H12.7908C13.1374 5.69043 13.4184 5.97143 13.4184 6.31804C13.4184 6.66465 13.1374 6.94565 12.7908 6.94565H3.41839C3.07178 6.94565 2.79077 6.66465 2.79077 6.31804C2.79077 5.97143 3.07178 5.69043 3.41839 5.69043ZM12.7908 15.7322H3.41839C3.07178 15.7322 2.79077 16.0132 2.79077 16.3598C2.79077 16.7064 3.07178 16.9874 3.41839 16.9874H12.7908C13.1374 16.9874 13.4184 16.7064 13.4184 16.3598C13.4184 16.0132 13.1374 15.7322 12.7908 15.7322ZM8.10466 8.36816H12.7908C13.1375 8.36816 13.4185 8.64917 13.4185 8.99578V13.682C13.4185 14.0286 13.1375 14.3096 12.7908 14.3096H8.10466C7.75805 14.3096 7.47705 14.0286 7.47705 13.682V8.99578C7.47705 8.64917 7.75805 8.36816 8.10466 8.36816ZM8.73228 13.0544H12.1632V9.6234H8.73228V13.0544ZM3.41839 10.6275H5.42676C5.77338 10.6275 6.05438 10.3465 6.05438 9.99992C6.05438 9.65332 5.77338 9.37231 5.42676 9.37231H3.41839C3.07178 9.37231 2.79077 9.65332 2.79077 9.99992C2.79077 10.3465 3.07178 10.6275 3.41839 10.6275ZM5.42676 13.3055H3.41839C3.07178 13.3055 2.79077 13.0245 2.79077 12.6779C2.79077 12.3313 3.07178 12.0503 3.41839 12.0503H5.42676C5.77338 12.0503 6.05438 12.3313 6.05438 12.6779C6.05438 13.0245 5.77338 13.3055 5.42676 13.3055Z" fill="white"/>
</svg>
