<svg width="21" height="21" viewBox="0 0 21 21" fill="none" xmlns="http://www.w3.org/2000/svg">
<path fill-rule="evenodd" clip-rule="evenodd" d="M17.2327 2.46094H19.1543C20.172 2.46094 21 3.28894 21 4.30664V19.1543C21 20.172 20.172 21 19.1543 21H1.8457C0.828003 21 0 20.172 0 19.1543V4.30664C0 3.28894 0.828003 2.46094 1.8457 2.46094H3.76733C3.82629 1.94025 3.95978 1.45685 4.15778 1.06079C4.49988 0.376831 5.00421 0 5.57812 0C6.15204 0 6.65637 0.376831 6.99847 1.06079C7.19647 1.45685 7.32996 1.94025 7.38892 2.46094H8.68921C8.74817 1.94025 8.88165 1.45685 9.07965 1.06079C9.42175 0.376831 9.92609 0 10.5 0C11.0739 0 11.5782 0.376831 11.9203 1.06079C12.1183 1.45685 12.2518 1.94025 12.3108 2.46094H13.6111C13.67 1.94025 13.8035 1.45685 14.0015 1.06079C14.3436 0.376831 14.848 0 15.4219 0C15.9958 0 16.5001 0.376831 16.8422 1.06079C17.0402 1.45685 17.1737 1.94025 17.2327 2.46094ZM15.4219 1.23047C15.4006 1.23047 15.2594 1.29663 15.1021 1.61115C14.9856 1.84424 14.8999 2.13843 14.8517 2.46094H15.9921C15.9438 2.13843 15.8583 1.84424 15.7417 1.61115C15.5844 1.29663 15.4432 1.23047 15.4219 1.23047ZM10.5 1.23047C10.4787 1.23047 10.3375 1.29663 10.1802 1.61115C10.0637 1.84424 9.97803 2.13843 9.92981 2.46094H11.0702C11.022 2.13843 10.9363 1.84424 10.8198 1.61115C10.6625 1.29663 10.5213 1.23047 10.5 1.23047ZM5.57812 1.23047C5.55682 1.23047 5.41565 1.29663 5.2583 1.61115C5.14185 1.84424 5.05615 2.13843 5.00793 2.46094H6.14832C6.1001 2.13843 6.0144 1.84424 5.89795 1.61115C5.7406 1.29663 5.59943 1.23047 5.57812 1.23047ZM6.14832 3.69141H1.8457C1.50653 3.69141 1.23047 3.96747 1.23047 4.30664V7.42383H19.7695V4.30664C19.7695 3.96747 19.4935 3.69141 19.1543 3.69141H17.2327C17.1737 4.2121 17.0402 4.6955 16.8422 5.09155C16.5001 5.77551 15.9958 6.15234 15.4219 6.15234C15.082 6.15234 14.8066 5.87695 14.8066 5.53711C14.8066 5.19727 15.082 4.92188 15.4219 4.92188C15.4432 4.92188 15.5844 4.85571 15.7417 4.5412C15.8582 4.30811 15.9438 4.01392 15.9921 3.69141H12.3108C12.2518 4.2121 12.1183 4.6955 11.9203 5.09155C11.5782 5.77551 11.0739 6.15234 10.5 6.15234C10.1602 6.15234 9.88477 5.87695 9.88477 5.53711C9.88477 5.19727 10.1602 4.92188 10.5 4.92188C10.5113 4.92188 10.5561 4.90332 10.6191 4.83929C10.6752 4.78229 10.7457 4.68927 10.8198 4.5412C10.9363 4.30811 11.022 4.01392 11.0702 3.69141H7.38892C7.32996 4.2121 7.19647 4.6955 6.99847 5.09155C6.65637 5.77551 6.15204 6.15234 5.57812 6.15234C5.23828 6.15234 4.96289 5.87695 4.96289 5.53711C4.96289 5.19727 5.23828 4.92188 5.57812 4.92188C5.59943 4.92188 5.7406 4.85571 5.89795 4.5412C6.0144 4.30811 6.1001 4.01392 6.14832 3.69141ZM1.23047 19.1543C1.23047 19.4935 1.50653 19.7695 1.8457 19.7695H19.1543C19.4935 19.7695 19.7695 19.4935 19.7695 19.1543V8.6543H1.23047V19.1543ZM2.50195 10.5C2.50195 10.1602 2.77734 9.88477 3.11719 9.88477H17.8828C18.2227 9.88477 18.498 10.1602 18.498 10.5V17.9238C18.498 18.2637 18.2227 18.5391 17.8828 18.5391H3.11719C2.77734 18.5391 2.50195 18.2637 2.50195 17.9238V10.5ZM14.8066 13.5762H17.2676V11.1152H14.8066V13.5762ZM9.88477 17.3086V14.8066H7.42383V17.3086H9.88477ZM7.42383 11.1152V13.5762H9.88477V11.1152H7.42383ZM13.5762 14.8066H11.1152V17.3086H13.5762V14.8066ZM11.1152 11.1152V13.5762H13.5762V11.1152H11.1152ZM6.19336 13.5762V11.1152H3.73242V13.5762H6.19336ZM6.19336 14.8066H3.73242V17.3086H6.19336V14.8066ZM14.8066 14.8066V17.3086H17.2676V14.8066H14.8066Z" fill="white"/>
</svg>
