<svg width="20" height="20" viewBox="0 0 20 20" fill="none" xmlns="http://www.w3.org/2000/svg">
<path fill-rule="evenodd" clip-rule="evenodd" d="M18.421 13.1685C17.2025 13.1708 15.9914 12.9781 14.8337 12.5979C14.2924 12.4086 13.6908 12.536 13.2726 12.9284L11.0011 14.6422C8.56152 13.4173 6.58215 11.4383 5.35687 8.99896L7.02527 6.7821C7.44653 6.3606 7.59717 5.73926 7.41583 5.17157C7.03412 4.01233 6.84045 2.79944 6.8421 1.57892C6.8421 0.706909 6.13519 0 5.26318 0H1.57892C0.706909 0 0 0.706909 0 1.57892C0.0115967 11.7478 8.2522 19.9884 18.421 20C19.2931 20 20 19.2931 20 18.421V14.7474C20 13.8754 19.2931 13.1685 18.421 13.1685ZM19.4736 8.42108C19.183 8.42108 18.9473 8.18542 18.9473 7.89478C18.9427 4.11786 15.8821 1.05725 12.1052 1.05261C11.8145 1.05261 11.5789 0.816956 11.5789 0.526306C11.5789 0.235596 11.8145 0 12.1052 0C16.4634 0.00463867 19.9953 3.5365 19.9999 7.89478C19.9999 8.18542 19.7643 8.42108 19.4736 8.42108ZM14.7368 7.89471C14.7368 8.18536 14.9724 8.42102 15.2631 8.42102C15.5538 8.42102 15.7894 8.18536 15.7894 7.89471C15.7894 5.85999 14.14 4.21045 12.1052 4.21045C11.8145 4.21045 11.5789 4.44611 11.5789 4.73676C11.5789 5.02747 11.8145 5.26312 12.1052 5.26312C13.5586 5.26312 14.7368 6.44128 14.7368 7.89471Z" fill="white"/>
</svg>
