<svg width="48" height="49" viewBox="0 0 48 49" fill="none" xmlns="http://www.w3.org/2000/svg">
<path d="M4.21364 37.1685C6.97779 37.1685 7.95535 38.5831 7.95535 40.1998V45.4204C7.95535 47.0371 6.97779 48.4517 4.21364 48.4517H0V37.1685H4.21364ZM2.15738 46.5656H4.01139C5.46088 46.5656 5.83168 45.993 5.83168 44.9152V40.705C5.83168 39.6272 5.42717 39.0546 4.01139 39.0546H2.15738V46.5656Z" fill="white"/>
<path d="M11.4612 44.9825C11.4612 46.094 11.9331 46.7339 13.4163 46.7339C13.9894 46.7339 14.5961 46.7002 15.1692 46.5992V43.1637H17.1918V48.1149C16.0119 48.4517 14.5961 48.6201 13.4163 48.6201C10.6522 48.6201 9.33752 47.4412 9.33752 45.2183V40.4018C9.33752 38.0778 10.6859 37 13.6186 37C14.5287 37 15.8434 37.101 16.8547 37.3705L16.6187 39.223C15.5737 38.9872 14.5624 38.9198 13.45 38.9198C11.9668 38.9198 11.4612 39.5261 11.4612 40.6713V44.9825Z" fill="white"/>
<path d="M18.4389 37.1685H25.3493V39.0546H20.5963V41.7828H24.9785V43.669H20.5963V46.5656H25.3493V48.4517H18.4389V37.1685Z" fill="white"/>
<path d="M33.8777 48.4517H31.8551L29.4281 41.1429L29.2595 48.4517H27.0684L27.5741 37.1685H29.9674L32.8664 45.5214L35.7991 37.1685H38.1587L38.6981 48.4517H36.507L36.3047 41.1429L33.8777 48.4517Z" fill="white"/>
<path d="M43.7882 48.6201C42.5072 48.6201 41.024 48.2833 40.2487 47.9464L40.6195 46.2624C41.6645 46.5992 42.6758 46.8013 43.8219 46.8013C45.3725 46.8013 45.6085 46.4645 45.6085 45.3867C45.6085 44.1405 45.5748 44.0394 43.5522 43.6016C40.8218 42.9953 40.451 42.4564 40.451 40.065C40.451 38.0104 41.3948 37 44.2601 37C45.2377 37 46.4175 37.1347 47.5636 37.3705L47.3276 39.1556C46.3838 38.9535 45.3051 38.8188 44.2938 38.8188C42.8443 38.8188 42.6084 39.1219 42.6084 40.0987C42.6084 41.3786 42.6421 41.4123 44.5972 41.8838C47.631 42.6248 47.7996 43.0963 47.7996 45.353C47.7321 47.5086 47.1254 48.6201 43.7882 48.6201Z" fill="white"/>
<path d="M28.6895 11.5204C30.078 11.8824 31.4664 12.6665 32.4926 13.7522C33.0963 14.4157 33.6396 15.1395 34.1225 15.9839C35.0884 17.7934 35.5713 19.9648 35.4506 22.1966V22.2569C35.4506 22.3775 35.4506 22.4982 35.3902 22.6791C35.511 22.5585 35.8732 22.1966 36.2957 21.2918C37.1409 19.5426 37.6842 17.3109 37.322 15.9236C37.2616 15.803 37.1409 15.6823 37.0805 15.5617C37.0805 15.5617 37.0805 15.5617 37.0805 15.5014C36.0543 13.6315 34.6658 12.0633 33.0359 11.0379C32.3115 10.5554 31.5268 10.1935 30.6816 10.0125C30.078 9.83157 29.3536 9.71094 28.6292 9.71094C28.1462 9.71094 27.6029 9.77125 27.1804 9.83157C27.8444 10.2538 28.3273 10.857 28.6895 11.5204Z" fill="#A69B62"/>
<path d="M29.5346 14.5365C30.6212 15.5619 31.406 16.9492 31.7682 18.3365C31.9493 19.0603 32.0097 19.7841 32.07 20.5079C32.1304 22.7396 31.4664 25.0317 30.1383 27.1427C30.0779 27.2634 29.9572 27.384 29.8968 27.4443C30.742 27.384 34.364 24.7904 34.9676 22.5587C35.028 22.3777 35.028 22.2571 35.028 22.0761V22.0158C35.0884 19.8444 34.6658 17.7936 33.7603 16.0444C33.3377 15.2603 32.8548 14.5365 32.2511 13.9333C31.406 13.0286 30.259 12.3651 29.1121 12.0032C29.3535 12.8476 29.5346 13.6317 29.5346 14.5365C29.5346 14.4762 29.5346 14.5365 29.5346 14.5365Z" fill="#A69B62"/>
<path d="M28.6896 21.9555C28.4481 22.7999 28.0859 23.6444 27.5426 24.4285C26.456 26.1777 24.8261 27.6856 22.834 28.711C22.7133 28.7713 22.5925 28.8316 22.4718 28.8316C22.5925 28.8919 22.834 28.9523 23.4377 28.9523C25.1883 28.9523 28.0859 28.2888 29.2932 27.1428C29.414 27.0221 29.5347 26.9015 29.5951 26.7809C29.5951 26.7809 29.5951 26.7809 29.5951 26.7205C30.8628 24.7301 31.4664 22.4983 31.4664 20.3872C31.4664 19.6634 31.3457 19 31.225 18.3365C30.9231 17.1904 30.3195 15.9841 29.4743 15.0793C29.3536 15.9238 29.1121 16.6476 28.6896 17.3714C29.1121 18.8793 29.1121 20.5079 28.6896 21.9555Z" fill="#A69B62"/>
<path d="M26.5163 19.6632C26.1541 21.1108 25.3693 22.5584 24.2827 23.5838C23.6791 24.187 22.9547 24.6695 22.1699 25.0917C20.4796 26.0568 18.4271 26.5394 16.3143 26.5394C16.1332 26.5394 15.9521 26.5394 15.8314 26.5394C15.7106 26.5394 15.5899 26.479 15.4088 26.479C15.6503 26.9616 18.7893 28.5901 21.2644 28.5901C21.6266 28.5901 21.9284 28.5298 22.2303 28.4695C22.4114 28.4092 22.5321 28.4092 22.6528 28.2885C22.6528 28.2885 22.6528 28.2885 22.7132 28.2885C24.6449 27.2632 26.2145 25.8759 27.2407 24.187C27.7236 23.4632 28.0858 22.6187 28.3273 21.8346C28.6895 20.6283 28.6895 19.3013 28.448 18.095C27.784 18.6981 27.1803 19.241 26.5163 19.6632Z" fill="#A69B62"/>
<path d="M18.2461 20.0252C17.4613 20.0252 16.7369 19.9046 16.0125 19.7237C15.1674 19.4824 14.3223 19.1205 13.5375 18.5776C11.7869 17.4919 10.2777 15.8634 9.25145 13.8729V13.8126C9.19108 13.692 9.13072 13.5713 9.13072 13.4507C9.07035 13.5713 8.94962 14.1142 9.00998 15.1396C9.13072 17.0697 9.79475 19.3014 10.7606 20.3268C10.8814 20.3871 11.0021 20.4475 11.1832 20.5078C11.1832 20.5078 11.1832 20.5078 11.2436 20.5078C13.1149 21.7141 15.2881 22.3173 17.3406 22.3173C18.1254 22.3173 18.8498 22.1967 19.5742 22.076C20.7815 21.7744 21.9285 21.1713 22.7736 20.3268C21.9888 20.2062 21.3248 19.9649 20.6608 19.603C19.876 19.9649 19.0309 20.0252 18.2461 20.0252Z" fill="#A69B62"/>
<path d="M27.3011 6.27298C28.0858 6.09202 28.8706 5.97139 29.6554 5.97139C29.7761 5.97139 29.8968 5.97139 30.0779 5.97139C32.1304 6.03171 34.2432 6.75551 36.1146 7.90154H36.175C36.2957 7.96185 36.4164 8.08249 36.4768 8.1428C36.4768 7.96185 36.2957 7.47932 35.7524 6.63488C34.6658 5.06663 32.9755 3.43807 31.6475 3.07617C31.5267 3.07617 31.406 3.07617 31.2853 3.07617H31.2249H31.1645C30.9834 3.07617 30.8627 3.07617 30.6816 3.07617C28.6895 3.07617 26.7578 3.55871 25.1279 4.46346C24.4035 4.88568 23.7394 5.36822 23.1961 5.91107C22.351 6.75551 21.687 7.84122 21.3248 8.92693C22.0492 8.62534 22.7736 8.50471 23.5583 8.44439C24.4638 7.47932 25.8523 6.63488 27.3011 6.27298Z" fill="#A69B62"/>
<path d="M23.4376 20.4474C22.4718 21.4728 21.0833 22.3172 19.6345 22.6791C18.9101 22.8601 18.065 22.9807 17.2802 22.9807C15.1674 22.9807 12.8735 22.3172 10.8814 21.0506C10.8814 21.0506 10.8814 21.0506 10.821 21.0506C10.6399 20.9299 10.5192 20.8696 10.4588 20.8696C10.4588 21.0506 10.6399 21.5331 11.2436 22.3775C12.3302 23.9458 14.0204 25.5743 15.3485 25.9362C15.5296 25.9965 15.6503 25.9965 15.7711 25.9965C15.9522 25.9965 16.0729 25.9965 16.254 25.9965C18.3065 25.9965 20.2382 25.514 21.8681 24.6093C22.5925 24.187 23.2565 23.7045 23.8602 23.1616C24.7657 22.3172 25.4297 21.1109 25.7919 19.9648C25.0675 20.2664 24.2828 20.4474 23.4376 20.4474C23.4376 20.4474 23.498 20.4474 23.4376 20.4474Z" fill="#A69B62"/>
<path d="M20.6003 9.28872C20.9625 7.96175 21.7473 6.57446 22.7735 5.54907C23.3772 4.9459 24.1016 4.46336 24.826 4.04114C26.5163 3.13639 28.5084 2.59353 30.6212 2.59353C30.8023 2.59353 30.923 2.59353 31.1041 2.59353C31.1041 2.59353 31.1041 2.59353 31.1645 2.59353H31.2249C31.406 2.59353 31.5267 2.59353 31.5871 2.53322C31.3456 2.05068 28.2065 0.422119 25.7315 0.422119C25.3693 0.422119 25.0675 0.482436 24.7656 0.542753C24.6449 0.60307 24.5242 0.723704 24.4034 0.784021H24.3431C22.4717 1.80941 20.9022 3.1967 19.8759 4.82526C19.393 5.54907 19.0308 6.33319 18.8497 7.17763C18.4875 8.38397 18.4875 9.65062 18.729 10.7966C19.2723 10.2538 19.8759 9.71094 20.6003 9.28872Z" fill="#A69B62"/>
<path d="M37.986 13.8728C37.8653 11.9427 37.2013 9.71096 36.175 8.68557C36.0543 8.56494 35.9336 8.44431 35.8128 8.38399C35.8128 8.38399 35.8128 8.38399 35.7525 8.38399C33.9415 7.23796 31.9494 6.63479 30.0176 6.51416C29.8969 6.51416 29.7762 6.51416 29.6554 6.51416C28.8707 6.51416 28.1463 6.63479 27.4219 6.75543C26.2145 7.05701 25.0675 7.7205 24.162 8.50462C25.0675 8.62526 25.8523 8.92684 26.5767 9.34906C27.2408 9.16811 27.9048 9.10779 28.6292 9.10779C29.414 9.10779 30.1384 9.22843 30.8024 9.40938C31.6475 9.65065 32.4927 10.0125 33.2774 10.4951C35.0281 11.5808 36.4769 13.2094 37.5635 15.1395C37.5635 15.1395 37.5635 15.1395 37.5635 15.1998C37.6842 15.4411 37.7446 15.5014 37.8049 15.5617C37.986 15.3808 38.0464 14.8982 37.986 13.8728Z" fill="#A69B62"/>
<path d="M18.3668 7.11741C18.6082 6.27297 18.9704 5.42853 19.4534 4.64441C20.54 2.89522 22.1699 1.44761 24.162 0.361902C24.162 0.361902 24.162 0.361902 24.2223 0.361902C24.4638 0.241268 24.5242 0.180951 24.5845 0.120634C24.4034 0.060317 24.1016 0 23.4979 0C21.7473 0 18.8497 0.663487 17.6424 1.80951C17.582 1.93015 17.5216 2.05078 17.4613 2.23173C17.4613 2.23173 17.4613 2.23173 17.4613 2.29205C16.3143 4.10156 15.7106 6.09202 15.6503 8.02217V8.08248V8.1428C15.6503 8.26343 15.6503 8.44438 15.6503 8.56502C15.6503 9.28882 15.771 9.95231 15.8917 10.6158C16.1936 11.7618 16.7972 12.9078 17.6424 13.8126C17.7631 12.9682 18.0046 12.2444 18.4271 11.5206C17.9442 10.1333 17.9442 8.56502 18.3668 7.11741Z" fill="#A69B62"/>
<path d="M18.4273 17.5522C16.9785 17.2506 15.5297 16.4062 14.4431 15.3205C13.8394 14.657 13.2961 13.9332 12.8132 13.0887C11.8473 11.2792 11.3644 9.10782 11.4851 6.87609V6.81577C11.4851 6.69514 11.4851 6.57451 11.5455 6.39355C11.3644 6.51419 11.0625 6.93641 10.5796 7.84116C9.73448 9.59036 9.19118 11.8221 9.55338 13.2094C9.61375 13.3903 9.61375 13.511 9.73448 13.6316C9.73448 13.6316 9.73448 13.6316 9.73448 13.6919C10.7607 15.6221 12.1491 17.1903 13.8394 18.2157C14.5638 18.6982 15.409 19.0601 16.1937 19.3014C16.8578 19.4824 17.5822 19.603 18.2462 19.603C18.7895 19.603 19.3932 19.5427 19.9968 19.422C19.3932 18.8189 18.8499 18.276 18.4273 17.5522Z" fill="#A69B62"/>
<path d="M15.2277 10.6762C14.9863 9.8318 14.9259 8.86672 14.9259 7.96197C14.9863 5.91119 15.6503 3.80009 16.8576 1.86994C16.918 1.74931 17.0387 1.62868 17.0991 1.56836C16.3143 1.56836 12.6923 4.22231 12.0887 6.39372C12.0283 6.57467 12.0283 6.69531 12.0283 6.87626V6.93658C11.9679 9.10799 12.3905 11.1588 13.296 12.908C13.7186 13.6921 14.2015 14.4159 14.8052 15.0191C15.7107 15.9238 16.8576 16.6476 18.065 17.0095C17.7631 16.2857 17.582 15.5016 17.5217 14.6572C16.4351 13.5715 15.5899 12.1238 15.2277 10.6762Z" fill="#A69B62"/>
</svg>
