<svg width="97" height="23" viewBox="0 0 97 23" fill="none" xmlns="http://www.w3.org/2000/svg">
<path d="M34.1825 3.49072C38.1067 3.49072 39.4946 5.49904 39.4946 7.79426V15.2059C39.4946 17.5011 38.1067 19.5094 34.1825 19.5094H28.2004V3.49072H34.1825ZM31.2633 16.8317H33.8954C35.9532 16.8317 36.4796 16.0188 36.4796 14.4886V8.51151C36.4796 6.98137 35.9053 6.16848 33.8954 6.16848H31.2633V16.8317Z" fill="white"/>
<path d="M44.4718 14.5841C44.4718 16.1621 45.1417 17.0706 47.2474 17.0706C48.061 17.0706 48.9224 17.0228 49.736 16.8793V12.002H52.6074V19.0311C50.9324 19.5093 48.9224 19.7484 47.2474 19.7484C43.3232 19.7484 41.4568 18.0748 41.4568 14.9188V8.08099C41.4568 4.78161 43.3711 3.25146 47.5346 3.25146C48.8267 3.25146 50.6931 3.39492 52.1288 3.77745L51.7938 6.40739C50.3102 6.07267 48.8746 5.97704 47.2953 5.97704C45.1896 5.97704 44.4718 6.83774 44.4718 8.46352V14.5841Z" fill="white"/>
<path d="M54.3781 3.49072H64.1885V6.16848H57.4408V10.0417H63.6621V12.7194H57.4408V16.8317H64.1885V19.5094H54.3781V3.49072Z" fill="white"/>
<path d="M76.2962 19.5094H73.4248L69.9791 9.13313L69.7398 19.5094H66.6292L67.347 3.49072H70.7448L74.8605 15.3493L79.024 3.49072H82.3739L83.1396 19.5094H80.029L79.7418 9.13313L76.2962 19.5094Z" fill="white"/>
<path d="M90.366 19.7484C88.5474 19.7484 86.4418 19.2702 85.3411 18.792L85.8675 16.4012C87.351 16.8793 88.7867 17.1662 90.4138 17.1662C92.6152 17.1662 92.9502 16.6881 92.9502 15.1579C92.9502 13.3887 92.9023 13.2452 90.031 12.6236C86.1546 11.7629 85.6282 10.9978 85.6282 7.60282C85.6282 4.68598 86.9682 3.25146 91.036 3.25146C92.4238 3.25146 94.0988 3.44273 95.7259 3.77745L95.3909 6.31176C94.0509 6.02485 92.5195 5.83359 91.0838 5.83359C89.026 5.83359 88.691 6.26394 88.691 7.65063C88.691 9.46768 88.7389 9.5155 91.5145 10.1849C95.8216 11.2369 96.0609 11.9064 96.0609 15.1101C95.9651 18.1704 95.1037 19.7484 90.366 19.7484Z" fill="white"/>
<path d="M15.6143 9.133C16.715 9.4199 17.8157 10.0415 18.6292 10.9022C19.1078 11.4282 19.5385 12.002 19.9213 12.6715C20.6871 14.106 21.0699 15.8274 20.9742 17.5966V17.6444C20.9742 17.7401 20.9742 17.8357 20.9263 17.9792C21.022 17.8835 21.3092 17.5966 21.6442 16.8794C22.3142 15.4927 22.7449 13.7234 22.4577 12.6236C22.4099 12.528 22.3142 12.4324 22.2663 12.3367C22.2663 12.3367 22.2663 12.3367 22.2663 12.2889C21.4528 10.8066 20.3521 9.56335 19.0599 8.75046C18.4857 8.36792 17.8635 8.08102 17.1935 7.93757C16.715 7.79412 16.1407 7.69849 15.5664 7.69849C15.1836 7.69849 14.7528 7.7463 14.4178 7.79412C14.9443 8.12884 15.3271 8.60701 15.6143 9.133Z" fill="#A69B62"/>
<path d="M16.2842 11.5239C17.1456 12.3368 17.7678 13.4366 18.0549 14.5364C18.1985 15.1102 18.2463 15.684 18.2942 16.2578C18.342 18.027 17.8156 19.8441 16.7628 21.5177C16.7149 21.6133 16.6192 21.7089 16.5713 21.7567C17.2413 21.7089 20.1127 19.6528 20.5913 17.8836C20.6391 17.7401 20.6391 17.6445 20.6391 17.501V17.4532C20.687 15.7318 20.352 14.106 19.6341 12.7194C19.2992 12.0977 18.9163 11.5239 18.4377 11.0458C17.7678 10.3285 16.8585 9.80253 15.9492 9.51562C16.1406 10.1851 16.2842 10.8067 16.2842 11.5239C16.2842 11.4761 16.2842 11.5239 16.2842 11.5239Z" fill="#A69B62"/>
<path d="M15.6143 17.4055C15.4229 18.0749 15.1357 18.7444 14.705 19.366C13.8436 20.7527 12.5515 21.9481 10.9722 22.761C10.8765 22.8088 10.7808 22.8566 10.6851 22.8566C10.7808 22.9045 10.9722 22.9523 11.4508 22.9523C12.8386 22.9523 15.1357 22.4263 16.0928 21.5178C16.1886 21.4221 16.2843 21.3265 16.3321 21.2309C16.3321 21.2309 16.3321 21.2309 16.3321 21.183C17.3371 19.6051 17.8157 17.8358 17.8157 16.1622C17.8157 15.5884 17.72 15.0625 17.6242 14.5365C17.385 13.6279 16.9064 12.6716 16.2364 11.9543C16.1407 12.6238 15.9493 13.1976 15.6143 13.7714C15.9493 14.9668 15.9493 16.2579 15.6143 17.4055Z" fill="#A69B62"/>
<path d="M13.8915 15.5885C13.6044 16.7361 12.9822 17.8837 12.1208 18.6966C11.6423 19.1747 11.068 19.5573 10.4459 19.892C9.10588 20.6571 7.47876 21.0396 5.80378 21.0396C5.66021 21.0396 5.51665 21.0396 5.42093 21.0396C5.32522 21.0396 5.22951 20.9918 5.08594 20.9918C5.27736 21.3743 7.7659 22.6654 9.72801 22.6654C10.0151 22.6654 10.2544 22.6176 10.4937 22.5697C10.6373 22.5219 10.733 22.5219 10.8287 22.4263C10.8287 22.4263 10.8287 22.4263 10.8766 22.4263C12.408 21.6134 13.6522 20.5136 14.4658 19.1747C14.8486 18.6009 15.1358 17.9315 15.3272 17.3099C15.6143 16.3535 15.6143 15.3016 15.4229 14.3452C14.8965 14.8234 14.4179 15.2537 13.8915 15.5885Z" fill="#A69B62"/>
<path d="M7.33508 15.8752C6.71295 15.8752 6.13867 15.7795 5.56439 15.6361C4.8944 15.4448 4.22441 15.1579 3.60228 14.7275C2.21444 13.8668 1.01803 12.5758 0.204469 10.9978V10.95C0.156612 10.8544 0.108756 10.7587 0.108756 10.6631C0.0608994 10.7587 -0.0348135 11.1891 0.0130429 12.002C0.108756 13.5321 0.635177 15.3013 1.40088 16.1142C1.49659 16.1621 1.59231 16.2099 1.73588 16.2577C1.73588 16.2577 1.73588 16.2577 1.78373 16.2577C3.26728 17.214 4.99012 17.6922 6.61724 17.6922C7.23937 17.6922 7.81365 17.5966 8.38792 17.5009C9.34505 17.2618 10.2543 16.7837 10.9243 16.1142C10.3022 16.0186 9.77576 15.8273 9.24934 15.5404C8.62721 15.8273 7.95722 15.8752 7.33508 15.8752Z" fill="#A69B62"/>
<path d="M14.5135 4.97304C15.1357 4.82958 15.7578 4.73395 16.3799 4.73395C16.4757 4.73395 16.5714 4.73395 16.7149 4.73395C18.3421 4.78177 20.017 5.35557 21.5006 6.2641H21.5484C21.6442 6.31192 21.7399 6.40755 21.7877 6.45537C21.7877 6.31192 21.6442 5.92938 21.2134 5.25994C20.352 4.01669 19.012 2.72562 17.9592 2.43872C17.8635 2.43872 17.7678 2.43872 17.6721 2.43872H17.6242H17.5764C17.4328 2.43872 17.3371 2.43872 17.1935 2.43872C15.6142 2.43872 14.0828 2.82126 12.7907 3.53852C12.2164 3.87324 11.69 4.25578 11.2593 4.68613C10.5893 5.35557 10.0629 6.21628 9.77576 7.077C10.35 6.83791 10.9243 6.74227 11.5464 6.69446C12.2643 5.92938 13.365 5.25994 14.5135 4.97304Z" fill="#A69B62"/>
<path d="M11.4507 16.2099C10.685 17.0228 9.58434 17.6923 8.43579 17.9792C7.86151 18.1226 7.19152 18.2182 6.56939 18.2182C4.89442 18.2182 3.07588 17.6923 1.49662 16.6881C1.49662 16.6881 1.49662 16.6881 1.44876 16.6881C1.30519 16.5925 1.20948 16.5446 1.16162 16.5446C1.16162 16.6881 1.30519 17.0706 1.78375 17.7401C2.64517 18.9833 3.98515 20.2744 5.03799 20.5613C5.18156 20.6091 5.27727 20.6091 5.37298 20.6091C5.51655 20.6091 5.61226 20.6091 5.75583 20.6091C7.38295 20.6091 8.91435 20.2266 10.2065 19.5093C10.7808 19.1746 11.3072 18.7921 11.7857 18.3617C12.5036 17.6923 13.03 16.7359 13.3171 15.8274C12.7429 16.0665 12.1207 16.2099 11.4507 16.2099C11.4507 16.2099 11.4986 16.2099 11.4507 16.2099Z" fill="#A69B62"/>
<path d="M9.20144 7.36381C9.48857 6.31184 10.1107 5.21205 10.9243 4.39916C11.4028 3.92099 11.9771 3.53845 12.5514 3.20373C13.8914 2.48648 15.4706 2.05613 17.1456 2.05613C17.2892 2.05613 17.3849 2.05613 17.5285 2.05613C17.5285 2.05613 17.5285 2.05613 17.5763 2.05613H17.6242C17.7677 2.05613 17.8635 2.05613 17.9113 2.00831C17.7199 1.62577 15.2314 0.334717 13.2692 0.334717C12.9821 0.334717 12.7428 0.382534 12.5035 0.430351C12.4078 0.478168 12.3121 0.573802 12.2164 0.621619H12.1685C10.685 1.43451 9.44072 2.5343 8.62716 3.82536C8.24431 4.39916 7.95717 5.02078 7.8136 5.69022C7.52646 6.64656 7.52646 7.65071 7.71788 8.55923C8.14859 8.12888 8.62716 7.69853 9.20144 7.36381Z" fill="#A69B62"/>
<path d="M22.9841 10.998C22.8884 9.46783 22.362 7.69861 21.5484 6.88572C21.4527 6.79008 21.357 6.69445 21.2613 6.64663C21.2613 6.64663 21.2613 6.64663 21.2134 6.64663C19.7778 5.73811 18.1985 5.25994 16.6671 5.16431C16.5714 5.16431 16.4757 5.16431 16.38 5.16431C15.7578 5.16431 15.1835 5.25994 14.6093 5.35557C13.6521 5.59466 12.7429 6.12065 12.025 6.74227C12.7429 6.8379 13.365 7.07699 13.9393 7.4117C14.4657 7.26825 14.9921 7.22044 15.5664 7.22044C16.1885 7.22044 16.7628 7.31607 17.2892 7.45952C17.9592 7.65079 18.6292 7.93769 19.2513 8.32023C20.6392 9.18093 21.7877 10.472 22.6491 12.0021C22.6491 12.0021 22.6491 12.0021 22.6491 12.05C22.7448 12.2412 22.7927 12.289 22.8406 12.3369C22.9841 12.1934 23.032 11.8109 22.9841 10.998Z" fill="#A69B62"/>
<path d="M7.43091 5.6424C7.62233 4.97296 7.90947 4.30352 8.29233 3.6819C9.15375 2.29521 10.4459 1.14761 12.0252 0.286902C12.0252 0.286902 12.0252 0.286902 12.073 0.286902C12.2645 0.191268 12.3123 0.143451 12.3602 0.0956338C12.2166 0.0478169 11.9773 0 11.4987 0C10.1109 0 7.81376 0.525986 6.85662 1.43451C6.80877 1.53014 6.76091 1.62578 6.71305 1.76923C6.71305 1.76923 6.71305 1.76923 6.71305 1.81704C5.80377 3.25155 5.3252 4.82951 5.27734 6.35965V6.40747V6.45528C5.27734 6.55092 5.27734 6.69437 5.27734 6.79C5.27734 7.3638 5.37306 7.88979 5.46877 8.41578C5.70806 9.3243 6.18663 10.2328 6.85662 10.9501C6.95234 10.2806 7.14376 9.70683 7.47876 9.13303C7.09591 8.03324 7.09591 6.79 7.43091 5.6424Z" fill="#A69B62"/>
<path d="M7.47863 13.9147C6.33006 13.6757 5.1815 13.0062 4.32008 12.1455C3.84151 11.6195 3.4108 11.0457 3.02795 10.3763C2.26224 8.94178 1.87939 7.22037 1.9751 5.45114V5.40332C1.9751 5.30769 1.9751 5.21205 2.02296 5.0686C1.87939 5.16424 1.6401 5.49896 1.25725 6.21621C0.587256 7.6029 0.156545 9.37213 0.443686 10.4719C0.491542 10.6154 0.491542 10.711 0.587256 10.8066C0.587256 10.8066 0.587256 10.8066 0.587256 10.8545C1.40082 12.3846 2.50153 13.6278 3.84151 14.4407C4.41579 14.8233 5.08579 15.1102 5.70793 15.3014C6.23435 15.4449 6.80863 15.5405 7.33506 15.5405C7.76577 15.5405 8.24433 15.4927 8.7229 15.3971C8.24433 14.9189 7.81362 14.4886 7.47863 13.9147Z" fill="#A69B62"/>
<path d="M4.94223 8.46355C4.7508 7.79411 4.70295 7.02903 4.70295 6.31178C4.7508 4.686 5.27722 3.0124 6.23434 1.48225C6.2822 1.38662 6.37791 1.29098 6.42577 1.24316C5.80364 1.24316 2.93227 3.34712 2.45371 5.06853C2.40585 5.21198 2.40585 5.30762 2.40585 5.45107V5.49889C2.358 7.2203 2.69299 8.84608 3.41083 10.2328C3.74583 10.8544 4.12867 11.4282 4.60724 11.9064C5.32508 12.6236 6.23434 13.1974 7.19147 13.4843C6.95219 12.9105 6.80862 12.2889 6.76076 11.6195C5.89935 10.7588 5.22937 9.61116 4.94223 8.46355Z" fill="#A69B62"/>
</svg>
