<svg width="21" height="21" viewBox="0 0 21 21" fill="none" xmlns="http://www.w3.org/2000/svg">
<path fill-rule="evenodd" clip-rule="evenodd" d="M2.625 0H18.375C19.8228 0 21 1.17725 21 2.625V18.375C21 19.8228 19.8228 21 18.375 21H2.625C1.17725 21 0 19.8228 0 18.375V2.625C0 1.17725 1.17725 0 2.625 0ZM18.375 1.75H2.625C2.14246 1.75 1.75 2.14246 1.75 2.625V13.6377L5.50635 9.88135C5.84814 9.53979 6.40186 9.53979 6.74365 9.88135L8.96875 12.1064L15.1313 5.94385C15.4731 5.60229 16.0269 5.60229 16.3687 5.94385L19.25 8.8252V2.625C19.25 2.14246 18.8575 1.75 18.375 1.75ZM2.625 19.25H18.375C18.8575 19.25 19.25 18.8575 19.25 18.375V11.3002L15.75 7.80023L10.2061 13.3438L12.4312 15.5688C12.7727 15.9106 12.7727 16.4644 12.4312 16.8062C12.26 16.9773 12.0366 17.0625 11.8125 17.0625C11.5884 17.0625 11.365 16.9773 11.1938 16.8057L6.125 11.7373L1.75 16.1123V18.375C1.75 18.8575 2.14246 19.25 2.625 19.25ZM5.25 7C6.21643 7 7 6.21643 7 5.25C7 4.28357 6.21643 3.5 5.25 3.5C4.28357 3.5 3.5 4.28357 3.5 5.25C3.5 6.21643 4.28357 7 5.25 7Z" fill="white"/>
</svg>
