<svg width="18" height="22" viewBox="0 0 18 22" fill="none" xmlns="http://www.w3.org/2000/svg">
<path d="M16.626 6.92915L10.2234 0.578086C9.44688 -0.192126 8.22098 -0.193264 7.44333 0.578086L1.04068 6.92915C0.439228 7.52574 0 8.59921 0 9.47665V19.0033C0 20.1675 0.883012 21.1116 1.96312 21.1116H7.86751V14.8208H9.82005V21.1116H15.7004C16.7852 21.1116 17.6666 20.1699 17.6666 19.0033V9.47665C17.6667 8.59902 17.2287 7.52692 16.626 6.92915ZM15.7004 19.0005H11.7831V12.7097H5.90458V19.0005C3.27685 19.0013 1.96298 19.0022 1.96298 19.0033V9.47665C1.96298 9.19001 2.17213 8.67878 2.37152 8.48101L8.77417 2.12999C8.79952 2.10486 8.86729 2.1049 8.89255 2.12999L15.2952 8.48101C15.4955 8.67972 15.7037 9.18937 15.7037 9.47665C15.7034 15.8259 15.7023 19.0005 15.7004 19.0005Z" fill="white"/>
</svg>
