<svg width="25" height="21" viewBox="0 0 25 21" fill="none" xmlns="http://www.w3.org/2000/svg">
<path fill-rule="evenodd" clip-rule="evenodd" d="M3.36034 0.225025C3.0603 -0.0750084 2.57384 -0.0750084 2.27381 0.225025C1.97377 0.525059 1.97377 1.01152 2.27381 1.31156L4.03542 3.07317H2.81707C1.26125 3.07317 0 4.33442 0 5.89024V18.1829C0 19.7388 1.26125 21 2.81707 21H21.5581C23.1139 21 24.3751 19.7388 24.3751 18.1829V5.89024C24.3751 4.33442 23.1139 3.07317 21.5581 3.07317H7.74506L9.50664 1.31156C9.80669 1.01152 9.80669 0.525059 9.50664 0.225025C9.2066 -0.0750084 8.72018 -0.0750084 8.42015 0.225025L5.89024 2.75493L3.36034 0.225025ZM21.5581 4.60975H2.81707C2.10987 4.60975 1.53658 5.18304 1.53658 5.89024V18.1829C1.53658 18.8902 2.10987 19.4634 2.81707 19.4634H21.5581C22.2653 19.4634 22.8385 18.8902 22.8385 18.1829V5.89024C22.8385 5.18304 22.2653 4.60975 21.5581 4.60975ZM11.0888 7.33902C10.8582 7.15452 10.5422 7.11855 10.2761 7.24649C10.0099 7.37443 9.84058 7.64362 9.84058 7.93895V16.1341C9.84058 16.4294 10.0099 16.6986 10.2761 16.8266C10.5422 16.9545 10.8582 16.9185 11.0888 16.7341L16.2108 12.6365C16.393 12.4906 16.4991 12.2699 16.4991 12.0365C16.4991 11.8032 16.393 11.5824 16.2108 11.4366L11.0888 7.33902Z" fill="white"/>
</svg>
