<svg width="20" height="20" viewBox="0 0 20 20" fill="none" xmlns="http://www.w3.org/2000/svg">
<path fill-rule="evenodd" clip-rule="evenodd" d="M9.25439 16.206L8.91522 15.5278C7.81696 13.3294 6.71362 11.1986 5.30029 9.28367C4.39453 8.05375 4.01202 6.53459 4.22449 5.00462C4.58368 2.42295 6.72528 0.334697 9.3186 0.0397141C10.9794 -0.155293 12.6452 0.374614 13.8835 1.48045C15.1226 2.58708 15.8334 4.17369 15.8334 5.83366C15.8334 6.93614 15.5226 8.01036 14.9343 8.94029L14.4593 9.68779L14.4545 9.69529C13.4135 11.3314 12.3372 13.0229 11.4644 14.7694L10.746 16.206C10.6044 16.4885 10.316 16.6669 10.0002 16.6669C9.68439 16.6669 9.39612 16.4885 9.25439 16.206ZM12.5002 5.83372C12.5002 4.45542 11.3785 3.33378 10.0002 3.33378C8.62195 3.33378 7.50024 4.45542 7.50024 5.83372C7.50024 7.21202 8.62195 8.33366 10.0002 8.33366C11.3785 8.33366 12.5002 7.21202 12.5002 5.83372ZM10.0002 6.66709C10.4602 6.66709 10.8335 6.2938 10.8335 5.83378C10.8335 5.37376 10.4602 5.00047 10.0002 5.00047C9.54022 5.00047 9.16693 5.37376 9.16693 5.83378C9.16693 6.2938 9.54022 6.66709 10.0002 6.66709ZM15.1906 12.2284C14.7439 12.1201 14.2939 12.3992 14.188 12.8467C14.0814 13.2942 14.3589 13.7434 14.8064 13.8492C17.3947 14.4634 18.333 15.3717 18.333 15.8334C18.333 16.8291 15.0097 18.3334 9.99982 18.3334C4.99072 18.3334 1.66663 16.8291 1.66663 15.8334C1.66663 15.3717 2.60583 14.4634 5.19238 13.8492C5.64075 13.7434 5.91742 13.2942 5.81073 12.8467C5.7049 12.3992 5.25488 12.12 4.80823 12.2284C1.70746 12.9634 0 14.2434 0 15.8334C0 18.5683 5.03162 20 9.99982 20C14.9689 20 19.9996 18.5683 19.9996 15.8334C19.9996 14.2434 18.2922 12.9634 15.1906 12.2284Z" fill="white"/>
</svg>
